<svg width="512" height="512" viewBox="0 0 512 512" fill="none" xmlns="http://www.w3.org/2000/svg">
  <rect width="512" height="512" rx="112" fill="url(#sky)"/>
  <path d="M390.348 246.736C390.348 195.992 353.54 153.676 304.82 145.196C285.252 98.3601 238.968 65 185.644 65C114.524 65 56.8477 122.676 56.8477 193.796C56.8477 197.268 57.004 200.704 57.3043 204.096C38.2084 219.304 26 243.012 26 269.604C26 315.42 63.132 352.552 108.948 352.552H388.056C434.024 352.552 471.296 315.284 471.296 269.312C471.296 233.04 448.052 202.2 415.632 190.916C399.62 203.6 390.348 223.016 390.348 246.736Z" fill="white" fill-opacity="0.94"/>
  <circle cx="369" cy="156" r="49" fill="#FFD463"/>
  <defs>
    <linearGradient id="sky" x1="256" y1="0" x2="256" y2="512" gradientUnits="userSpaceOnUse">
      <stop stop-color="#1A56C4"/>
      <stop offset="1" stop-color="#0D2F6E"/>
    </linearGradient>
  </defs>
</svg>
